# xmcd
#
# Track frame offsets:
# 150
# 16220
# 28075
# 42350
# 54677
# 66222
# 79527
# 85157
# 101327
# 112685
# 126720
# 139117
# 148405
# 159352
# 169977
#
# Disc length: 2554 seconds
#
#
# Revision: 0
# Processed by: cddbd v1.4PL0 Copyright (c) Steve Scherf et al.
# Submitted via: FreeRIP 2.30 
#
DISCID=cb09f80f
DTITLE=Wacky Kids - Wacky Generation
DYEAR=2000
DGENRE=Punk Rock
TTITLE0=E.L.M.O
TTITLE1=I never felt in love
TTITLE2=Wasted time
TTITLE3=Peter's problem
TTITLE4=Allright
TTITLE5=Let it go
TTITLE6=Horn meek song
TTITLE7=Lesson of love
TTITLE8=Independent
TTITLE9=Acho que não sei
TTITLE10=Snow bomb
TTITLE11=So scared
TTITLE12=Goodbye - Wrong
TTITLE13=Don't talk to strangers
TTITLE14=Ah!
EXTD=id3 by jOsP
EXTT0=
EXTT1=
EXTT2=
EXTT3=
EXTT4=
EXTT5=
EXTT6=
EXTT7=
EXTT8=
EXTT9=
EXTT10=
EXTT11=
EXTT12=
EXTT13=
EXTT14=
PLAYORDER=
